<svg width="208" height="39" viewBox="0 0 208 39" fill="none" xmlns="http://www.w3.org/2000/svg">
<path d="M0.632 4.016C1.432 4.048 2.504 4.08 3.848 4.112C5.224 4.144 6.584 4.16 7.928 4.16C9.464 4.16 10.952 4.144 12.392 4.112C13.832 4.08 14.856 4.064 15.464 4.064C18.44 4.064 20.904 4.4 22.856 5.072C24.84 5.712 26.312 6.656 27.272 7.904C28.264 9.152 28.76 10.656 28.76 12.416C28.76 13.504 28.536 14.608 28.088 15.728C27.64 16.816 26.872 17.84 25.784 18.8C24.728 19.728 23.272 20.48 21.416 21.056C19.56 21.6 17.224 21.872 14.408 21.872H9.8V20.912H13.928C15.816 20.912 17.24 20.56 18.2 19.856C19.192 19.12 19.864 18.16 20.216 16.976C20.6 15.76 20.792 14.416 20.792 12.944C20.792 10.416 20.344 8.464 19.448 7.088C18.552 5.68 17.016 4.976 14.84 4.976C13.592 4.976 12.776 5.248 12.392 5.792C12.04 6.336 11.864 7.44 11.864 9.104V32.912C11.864 34.064 11.944 34.928 12.104 35.504C12.296 36.08 12.648 36.464 13.16 36.656C13.672 36.848 14.44 36.976 15.464 37.04V38C14.6 37.936 13.512 37.904 12.2 37.904C10.888 37.872 9.56 37.856 8.216 37.856C6.68 37.856 5.224 37.872 3.848 37.904C2.504 37.904 1.432 37.936 0.632 38V37.04C1.656 36.976 2.424 36.848 2.936 36.656C3.448 36.464 3.784 36.08 3.944 35.504C4.136 34.928 4.232 34.064 4.232 32.912V9.104C4.232 7.92 4.136 7.056 3.944 6.512C3.784 5.936 3.432 5.552 2.888 5.36C2.376 5.136 1.624 5.008 0.632 4.976V4.016ZM9.704 21.056C11.08 21.088 12.264 21.152 13.256 21.248C14.28 21.344 15.176 21.44 15.944 21.536C16.712 21.6 17.4 21.648 18.008 21.68C20.92 21.936 23.064 22.56 24.44 23.552C25.848 24.544 26.76 26.032 27.176 28.016L28.28 32.96C28.568 34.24 28.872 35.136 29.192 35.648C29.512 36.16 29.976 36.416 30.584 36.416C31 36.384 31.336 36.288 31.592 36.128C31.88 35.936 32.184 35.664 32.504 35.312L33.176 35.888C32.312 36.88 31.384 37.584 30.392 38C29.4 38.448 28.2 38.672 26.792 38.672C25.064 38.672 23.64 38.304 22.52 37.568C21.4 36.832 20.664 35.472 20.312 33.488L19.448 28.688C19.224 27.344 18.952 26.176 18.632 25.184C18.312 24.16 17.864 23.36 17.288 22.784C16.744 22.176 15.976 21.872 14.984 21.872H9.8L9.704 21.056ZM39.6264 0.799998C40.9704 0.799998 42.0264 1.136 42.7944 1.808C43.5944 2.448 43.9944 3.344 43.9944 4.496C43.9944 5.648 43.5944 6.56 42.7944 7.232C42.0264 7.872 40.9704 8.192 39.6264 8.192C38.2824 8.192 37.2104 7.872 36.4104 7.232C35.6424 6.56 35.2584 5.648 35.2584 4.496C35.2584 3.344 35.6424 2.448 36.4104 1.808C37.2104 1.136 38.2824 0.799998 39.6264 0.799998ZM43.3704 12.656V33.536C43.3704 34.88 43.5944 35.792 44.0424 36.272C44.5224 36.752 45.3224 36.992 46.4424 36.992V38C45.8664 37.968 44.9704 37.936 43.7544 37.904C42.5384 37.84 41.3064 37.808 40.0584 37.808C38.8104 37.808 37.5464 37.84 36.2664 37.904C34.9864 37.936 34.0264 37.968 33.3864 38V36.992C34.5064 36.992 35.2904 36.752 35.7384 36.272C36.2184 35.792 36.4584 34.88 36.4584 33.536V18.416C36.4584 16.976 36.2344 15.92 35.7864 15.248C35.3704 14.544 34.5704 14.192 33.3864 14.192V13.184C34.4104 13.28 35.4024 13.328 36.3624 13.328C37.7064 13.328 38.9544 13.28 40.1064 13.184C41.2904 13.056 42.3784 12.88 43.3704 12.656ZM58.271 5.312V13.184H63.935V14.144H58.271V33.536C58.271 34.496 58.447 35.184 58.799 35.6C59.151 35.984 59.679 36.176 60.383 36.176C60.959 36.176 61.535 35.968 62.111 35.552C62.687 35.104 63.199 34.352 63.647 33.296L64.463 33.728C63.951 35.168 63.167 36.352 62.111 37.28C61.087 38.208 59.679 38.672 57.887 38.672C56.831 38.672 55.903 38.528 55.103 38.24C54.303 37.984 53.631 37.584 53.087 37.04C52.383 36.336 51.919 35.472 51.695 34.448C51.471 33.392 51.359 32.032 51.359 30.368V14.144H47.327V13.184H51.359V6.848C52.703 6.848 53.935 6.736 55.055 6.512C56.207 6.256 57.279 5.856 58.271 5.312ZM72.026 38.336C70.586 38.336 69.386 38.064 68.426 37.52C67.466 36.976 66.762 36.256 66.314 35.36C65.866 34.432 65.642 33.424 65.642 32.336C65.642 30.96 65.946 29.84 66.554 28.976C67.194 28.112 68.01 27.408 69.002 26.864C69.994 26.32 71.034 25.872 72.122 25.52C73.242 25.168 74.298 24.832 75.29 24.512C76.314 24.16 77.13 23.76 77.738 23.312C78.378 22.832 78.698 22.224 78.698 21.488V17.744C78.698 16.912 78.554 16.176 78.266 15.536C78.01 14.864 77.594 14.352 77.018 14C76.474 13.648 75.754 13.472 74.858 13.472C74.218 13.472 73.578 13.568 72.938 13.76C72.298 13.92 71.77 14.208 71.354 14.624C72.25 14.944 72.938 15.44 73.418 16.112C73.93 16.752 74.186 17.488 74.186 18.32C74.186 19.408 73.802 20.272 73.034 20.912C72.298 21.552 71.418 21.872 70.394 21.872C69.242 21.872 68.362 21.52 67.754 20.816C67.178 20.08 66.89 19.2 66.89 18.176C66.89 17.248 67.114 16.48 67.562 15.872C68.042 15.264 68.698 14.688 69.53 14.144C70.426 13.632 71.498 13.232 72.746 12.944C74.026 12.656 75.402 12.512 76.874 12.512C78.346 12.512 79.674 12.672 80.858 12.992C82.042 13.28 83.034 13.824 83.834 14.624C84.57 15.36 85.05 16.272 85.274 17.36C85.498 18.416 85.61 19.76 85.61 21.392V34.448C85.61 35.248 85.69 35.808 85.85 36.128C86.01 36.416 86.282 36.56 86.666 36.56C86.954 36.56 87.226 36.48 87.482 36.32C87.77 36.16 88.074 35.968 88.394 35.744L88.874 36.56C88.202 37.136 87.418 37.584 86.522 37.904C85.658 38.192 84.682 38.336 83.594 38.336C82.41 38.336 81.466 38.176 80.762 37.856C80.058 37.504 79.546 37.04 79.226 36.464C78.938 35.888 78.794 35.216 78.794 34.448C78.026 35.664 77.098 36.624 76.01 37.328C74.922 38 73.594 38.336 72.026 38.336ZM75.434 35.264C76.074 35.264 76.65 35.12 77.162 34.832C77.706 34.512 78.218 34 78.698 33.296V23.456C78.41 23.936 78.01 24.368 77.498 24.752C76.986 25.136 76.442 25.536 75.866 25.952C75.29 26.336 74.73 26.768 74.186 27.248C73.674 27.728 73.258 28.32 72.938 29.024C72.618 29.728 72.458 30.576 72.458 31.568C72.458 32.816 72.73 33.744 73.274 34.352C73.818 34.96 74.538 35.264 75.434 35.264ZM101.695 4.016C102.495 4.048 103.567 4.08 104.911 4.112C106.287 4.144 107.647 4.16 108.991 4.16C110.527 4.16 112.015 4.144 113.455 4.112C114.895 4.08 115.919 4.064 116.527 4.064C119.503 4.064 121.967 4.4 123.919 5.072C125.903 5.712 127.375 6.656 128.335 7.904C129.327 9.152 129.823 10.656 129.823 12.416C129.823 13.504 129.599 14.608 129.151 15.728C128.703 16.816 127.935 17.84 126.847 18.8C125.791 19.728 124.335 20.48 122.479 21.056C120.623 21.6 118.287 21.872 115.471 21.872H110.863V20.912H114.991C116.879 20.912 118.303 20.56 119.263 19.856C120.255 19.12 120.927 18.16 121.279 16.976C121.663 15.76 121.855 14.416 121.855 12.944C121.855 10.416 121.407 8.464 120.511 7.088C119.615 5.68 118.079 4.976 115.903 4.976C114.655 4.976 113.839 5.248 113.455 5.792C113.103 6.336 112.927 7.44 112.927 9.104V32.912C112.927 34.064 113.007 34.928 113.167 35.504C113.359 36.08 113.711 36.464 114.223 36.656C114.735 36.848 115.503 36.976 116.527 37.04V38C115.663 37.936 114.575 37.904 113.263 37.904C111.951 37.872 110.623 37.856 109.279 37.856C107.743 37.856 106.287 37.872 104.911 37.904C103.567 37.904 102.495 37.936 101.695 38V37.04C102.719 36.976 103.487 36.848 103.999 36.656C104.511 36.464 104.847 36.08 105.007 35.504C105.199 34.928 105.295 34.064 105.295 32.912V9.104C105.295 7.92 105.199 7.056 105.007 6.512C104.847 5.936 104.495 5.552 103.951 5.36C103.439 5.136 102.687 5.008 101.695 4.976V4.016ZM110.767 21.056C112.143 21.088 113.327 21.152 114.319 21.248C115.343 21.344 116.239 21.44 117.007 21.536C117.775 21.6 118.463 21.648 119.071 21.68C121.983 21.936 124.127 22.56 125.503 23.552C126.911 24.544 127.823 26.032 128.239 28.016L129.343 32.96C129.631 34.24 129.935 35.136 130.255 35.648C130.575 36.16 131.039 36.416 131.647 36.416C132.063 36.384 132.399 36.288 132.655 36.128C132.943 35.936 133.247 35.664 133.567 35.312L134.239 35.888C133.375 36.88 132.447 37.584 131.455 38C130.463 38.448 129.263 38.672 127.855 38.672C126.127 38.672 124.703 38.304 123.583 37.568C122.463 36.832 121.727 35.472 121.375 33.488L120.511 28.688C120.287 27.344 120.015 26.176 119.695 25.184C119.375 24.16 118.927 23.36 118.351 22.784C117.807 22.176 117.039 21.872 116.047 21.872H110.863L110.767 21.056ZM146.833 12.512C149.169 12.512 151.217 12.944 152.977 13.808C154.737 14.672 156.113 16.064 157.105 17.984C158.097 19.904 158.593 22.448 158.593 25.616C158.593 28.784 158.097 31.328 157.105 33.248C156.113 35.136 154.737 36.512 152.977 37.376C151.217 38.24 149.169 38.672 146.833 38.672C144.561 38.672 142.529 38.24 140.737 37.376C138.977 36.512 137.585 35.136 136.561 33.248C135.569 31.328 135.073 28.784 135.073 25.616C135.073 22.448 135.569 19.904 136.561 17.984C137.585 16.064 138.977 14.672 140.737 13.808C142.529 12.944 144.561 12.512 146.833 12.512ZM146.833 13.472C145.553 13.472 144.481 14.432 143.617 16.352C142.753 18.24 142.321 21.328 142.321 25.616C142.321 29.904 142.753 32.992 143.617 34.88C144.481 36.768 145.553 37.712 146.833 37.712C148.145 37.712 149.217 36.768 150.049 34.88C150.913 32.992 151.345 29.904 151.345 25.616C151.345 21.328 150.913 18.24 150.049 16.352C149.217 14.432 148.145 13.472 146.833 13.472ZM171.094 12.512C172.438 12.512 173.606 12.688 174.598 13.04C175.622 13.36 176.358 13.68 176.806 14C177.894 14.736 178.566 14.256 178.822 12.56H179.83C179.766 13.456 179.718 14.56 179.686 15.872C179.654 17.152 179.638 18.864 179.638 21.008H178.63C178.47 19.824 178.166 18.656 177.718 17.504C177.27 16.352 176.614 15.408 175.75 14.672C174.918 13.936 173.83 13.568 172.486 13.568C171.558 13.568 170.774 13.84 170.134 14.384C169.494 14.896 169.174 15.648 169.174 16.64C169.174 17.6 169.462 18.448 170.038 19.184C170.614 19.888 171.35 20.576 172.246 21.248C173.174 21.888 174.134 22.576 175.126 23.312C176.182 24.112 177.142 24.912 178.006 25.712C178.87 26.48 179.558 27.328 180.07 28.256C180.582 29.184 180.838 30.288 180.838 31.568C180.838 33.008 180.422 34.272 179.59 35.36C178.758 36.416 177.654 37.232 176.278 37.808C174.934 38.384 173.43 38.672 171.766 38.672C170.806 38.672 169.942 38.576 169.174 38.384C168.438 38.192 167.798 37.952 167.254 37.664C166.838 37.472 166.438 37.296 166.054 37.136C165.702 36.944 165.366 36.784 165.046 36.656C164.726 36.56 164.438 36.672 164.182 36.992C163.958 37.312 163.782 37.76 163.654 38.336H162.646C162.71 37.312 162.758 36.064 162.79 34.592C162.822 33.12 162.838 31.168 162.838 28.736H163.846C164.038 30.464 164.39 32 164.902 33.344C165.414 34.656 166.102 35.696 166.966 36.464C167.862 37.2 168.982 37.568 170.326 37.568C170.87 37.568 171.398 37.456 171.91 37.232C172.422 37.008 172.838 36.64 173.158 36.128C173.51 35.616 173.686 34.96 173.686 34.16C173.686 32.752 173.222 31.584 172.294 30.656C171.398 29.728 170.246 28.72 168.838 27.632C167.814 26.8 166.838 25.984 165.91 25.184C165.014 24.352 164.278 23.456 163.702 22.496C163.126 21.504 162.838 20.384 162.838 19.136C162.838 17.696 163.222 16.48 163.99 15.488C164.758 14.496 165.766 13.76 167.014 13.28C168.294 12.768 169.654 12.512 171.094 12.512ZM190.385 38.336C188.945 38.336 187.745 38.064 186.785 37.52C185.825 36.976 185.121 36.256 184.673 35.36C184.225 34.432 184.001 33.424 184.001 32.336C184.001 30.96 184.305 29.84 184.913 28.976C185.553 28.112 186.369 27.408 187.361 26.864C188.353 26.32 189.393 25.872 190.481 25.52C191.601 25.168 192.657 24.832 193.649 24.512C194.673 24.16 195.489 23.76 196.097 23.312C196.737 22.832 197.057 22.224 197.057 21.488V17.744C197.057 16.912 196.913 16.176 196.625 15.536C196.369 14.864 195.953 14.352 195.377 14C194.833 13.648 194.113 13.472 193.217 13.472C192.577 13.472 191.937 13.568 191.297 13.76C190.657 13.92 190.129 14.208 189.713 14.624C190.609 14.944 191.297 15.44 191.777 16.112C192.289 16.752 192.545 17.488 192.545 18.32C192.545 19.408 192.161 20.272 191.393 20.912C190.657 21.552 189.777 21.872 188.753 21.872C187.601 21.872 186.721 21.52 186.113 20.816C185.537 20.08 185.249 19.2 185.249 18.176C185.249 17.248 185.473 16.48 185.921 15.872C186.401 15.264 187.057 14.688 187.889 14.144C188.785 13.632 189.857 13.232 191.105 12.944C192.385 12.656 193.761 12.512 195.233 12.512C196.705 12.512 198.033 12.672 199.217 12.992C200.401 13.28 201.393 13.824 202.193 14.624C202.929 15.36 203.409 16.272 203.633 17.36C203.857 18.416 203.969 19.76 203.969 21.392V34.448C203.969 35.248 204.049 35.808 204.209 36.128C204.369 36.416 204.641 36.56 205.025 36.56C205.313 36.56 205.585 36.48 205.841 36.32C206.129 36.16 206.433 35.968 206.753 35.744L207.233 36.56C206.561 37.136 205.777 37.584 204.881 37.904C204.017 38.192 203.041 38.336 201.953 38.336C200.769 38.336 199.825 38.176 199.121 37.856C198.417 37.504 197.905 37.04 197.585 36.464C197.297 35.888 197.153 35.216 197.153 34.448C196.385 35.664 195.457 36.624 194.369 37.328C193.281 38 191.953 38.336 190.385 38.336ZM193.793 35.264C194.433 35.264 195.009 35.12 195.521 34.832C196.065 34.512 196.577 34 197.057 33.296V23.456C196.769 23.936 196.369 24.368 195.857 24.752C195.345 25.136 194.801 25.536 194.225 25.952C193.649 26.336 193.089 26.768 192.545 27.248C192.033 27.728 191.617 28.32 191.297 29.024C190.977 29.728 190.817 30.576 190.817 31.568C190.817 32.816 191.089 33.744 191.633 34.352C192.177 34.96 192.897 35.264 193.793 35.264Z" fill="#141414"/>
</svg>
